# xmcd CD database file
#
# Track frame offsets:
#	150
#	18347
#	31960
#	47980
#	60315
#	71992
#	86562
#	98722
#	111142
#	131135
#
# Disc length: 1960 seconds
#
# Revision: 4
# Processed by: cddbd v1.4PL0 Copyright (c) Steve Scherf et al.
# Submitted via: NeoAudio 9.9.9
#
DISCID=8507a60a
DTITLE=Ween - 12 Golden Country Greats
DYEAR=1996
DGENRE=Country
TTITLE0=I'm Holding You
TTITLE1=Japanese Cowboy
TTITLE2=Piss Up A Rope
TTITLE3=I Don't Wanna Leave You On The Farm
TTITLE4=Pretty Girl
TTITLE5=Powder Blue
TTITLE6=Mister Richard Smoker
TTITLE7=Help Me Scrape The Mucus Off My Brain
TTITLE8=You Were The Fool
TTITLE9=Fluffy
EXTD=YEAR: 1996
EXTT0=
EXTT1=
EXTT2=
EXTT3=
EXTT4=
EXTT5=
EXTT6=
EXTT7=
EXTT8=
EXTT9=
PLAYORDER=
